<svg xmlns="http://www.w3.org/2000/svg" width="256" height="256" viewBox="0 0 100 100"><path fill="#444444" d="M53.15 82.40L53.15 82.40Q46.85 82.40 42.44 79.56Q38.03 76.73 35.69 69.67Q33.35 62.60 33.35 50L33.35 50Q33.35 37.40 35.65 30.34Q37.94 23.27 42.17 20.44Q46.40 17.60 52.25 17.60L52.25 17.60Q56.30 17.60 60.03 18.14Q63.77 18.68 65.75 19.40L65.75 19.40L65.75 23.45L54.05 23.45Q50.45 23.45 47.62 25.70Q44.78 27.95 43.12 33.66Q41.45 39.38 41.45 50L41.45 50Q41.45 60.53 43.16 66.29Q44.87 72.05 47.89 74.30Q50.90 76.55 54.95 76.55L54.95 76.55L66.65 76.55L66.65 80.60Q64.67 81.23 60.94 81.81Q57.20 82.40 53.15 82.40Z"></path></svg>